<svg width="1024" height="1024" viewBox="0 0 1024 1024" xmlns="http://www.w3.org/2000/svg">
  <defs>
    <!-- Elegant warm gradient background (sunrise/sunset inspired) -->
    <radialGradient id="warmBackgroundGradient" cx="50%" cy="40%" r="90%">
      <stop offset="0%" style="stop-color:#FFF8E7;stop-opacity:1" />
      <stop offset="30%" style="stop-color:#FFE8CC;stop-opacity:1" />
      <stop offset="70%" style="stop-color:#FFCCCB;stop-opacity:1" />
      <stop offset="100%" style="stop-color:#F8BBD0;stop-opacity:1" />
    </radialGradient>
    
    <!-- Primary flow gradient (warm rose to coral) -->
    <linearGradient id="primaryFlowGradient" x1="0%" y1="0%" x2="100%" y2="100%">
      <stop offset="0%" style="stop-color:#FF6B9D;stop-opacity:1" />
      <stop offset="50%" style="stop-color:#FF8A80;stop-opacity:0.95" />
      <stop offset="100%" style="stop-color:#FFAB91;stop-opacity:0.9" />
    </linearGradient>
    
    <!-- Secondary flow gradient (warm purple to peach) -->
    <linearGradient id="secondaryFlowGradient" x1="100%" y1="0%" x2="0%" y2="100%">
      <stop offset="0%" style="stop-color:#CE93D8;stop-opacity:1" />
      <stop offset="50%" style="stop-color:#F8BBD9;stop-opacity:0.95" />
      <stop offset="100%" style="stop-color:#FFCCBC;stop-opacity:0.9" />
    </linearGradient>
    
    <!-- Center droplet gradient (elegant warm tone) -->
    <radialGradient id="centerDropletGradient" cx="30%" cy="30%" r="70%">
      <stop offset="0%" style="stop-color:#FFFFFF;stop-opacity:0.4" />
      <stop offset="40%" style="stop-color:#FF8A65;stop-opacity:0.8" />
      <stop offset="100%" style="stop-color:#F4511E;stop-opacity:1" />
    </radialGradient>
    
    <!-- Soft shadow filter -->
    <filter id="softShadow" x="-50%" y="-50%" width="200%" height="200%">
      <feDropShadow dx="0" dy="6" stdDeviation="8" flood-color="#000000" flood-opacity="0.12"/>
    </filter>
    
    <!-- Gentle glow filter -->
    <filter id="gentleGlow" x="-50%" y="-50%" width="200%" height="200%">
      <feGaussianBlur stdDeviation="4" result="coloredBlur"/>
      <feMerge> 
        <feMergeNode in="coloredBlur"/>
        <feMergeNode in="SourceGraphic"/>
      </feMerge>
    </filter>
  </defs>
  
  <!-- Warm gradient background -->
  <circle cx="512" cy="512" r="480" fill="url(#warmBackgroundGradient)" />
  
  <!-- Primary elegant flow arc -->
  <path d="M 220 370 Q 370 220, 570 300 Q 770 380, 844 600 Q 800 770, 620 820 Q 420 770, 370 570" 
        fill="none" 
        stroke="url(#primaryFlowGradient)" 
        stroke-width="38" 
        stroke-linecap="round"
        filter="url(#softShadow)"
        opacity="0.9" />
  
  <!-- Secondary elegant flow arc -->
  <path d="M 804 654 Q 654 804, 454 724 Q 254 644, 180 424 Q 224 254, 404 204 Q 604 254, 654 454" 
        fill="none" 
        stroke="url(#secondaryFlowGradient)" 
        stroke-width="38" 
        stroke-linecap="round"
        filter="url(#softShadow)"
        opacity="0.9" />
  
  <!-- Center highlight where flows intersect -->
  <circle cx="512" cy="512" r="20" fill="url(#centerDropletGradient)" opacity="0.7" filter="url(#gentleGlow)" />
  
  <!-- Main droplet at center -->
  <path d="M 512 490 Q 495 505, 495 520 Q 495 540, 512 540 Q 529 540, 529 520 Q 529 505, 512 490 Z" 
        fill="url(#centerDropletGradient)" 
        filter="url(#softShadow)" />
  
  <!-- Elegant highlight on droplet -->
  <ellipse cx="507" cy="502" rx="6" ry="10" fill="#FFFFFF" opacity="0.5" />
  
</svg>
