<?xml version="1.0" encoding="UTF-8"?>
<svg width="1024" height="1024" viewBox="0 0 1024 1024" xmlns="http://www.w3.org/2000/svg">
  <defs>
    <!-- Holographic Background Gradient -->
    <radialGradient id="holographicBg" cx="50%" cy="30%" r="70%">
      <stop offset="0%" style="stop-color:#FF6B6B;stop-opacity:0.9"/>
      <stop offset="30%" style="stop-color:#FF8E8E;stop-opacity:0.8"/>
      <stop offset="60%" style="stop-color:#B886FF;stop-opacity:0.9"/>
      <stop offset="100%" style="stop-color:#8E44AD;stop-opacity:1"/>
    </radialGradient>
    
    <!-- Moon Gradient -->
    <linearGradient id="moonGradient" x1="0%" y1="0%" x2="100%" y2="100%">
      <stop offset="0%" style="stop-color:#F8F9FA;stop-opacity:0.95"/>
      <stop offset="50%" style="stop-color:#FFF5E6;stop-opacity:0.9"/>
      <stop offset="100%" style="stop-color:#E8B4B8;stop-opacity:0.8"/>
    </linearGradient>
    
    <!-- Moon Inner Glow -->
    <radialGradient id="moonGlow" cx="40%" cy="30%" r="60%">
      <stop offset="0%" style="stop-color:#FFFFFF;stop-opacity:0.6"/>
      <stop offset="70%" style="stop-color:#F8F9FA;stop-opacity:0.3"/>
      <stop offset="100%" style="stop-color:#E8B4B8;stop-opacity:0"/>
    </radialGradient>
    
    <!-- Drop Gradient -->
    <radialGradient id="dropGradient" cx="30%" cy="20%" r="80%">
      <stop offset="0%" style="stop-color:#FF4757;stop-opacity:1"/>
      <stop offset="50%" style="stop-color:#FF3742;stop-opacity:0.95"/>
      <stop offset="80%" style="stop-color:#C0392B;stop-opacity:0.9"/>
      <stop offset="100%" style="stop-color:#8B0000;stop-opacity:0.85"/>
    </radialGradient>
    
    <!-- Drop Shimmer -->
    <linearGradient id="dropShimmer" x1="0%" y1="0%" x2="100%" y2="100%">
      <stop offset="0%" style="stop-color:#FFFFFF;stop-opacity:0.4"/>
      <stop offset="30%" style="stop-color:#FFFFFF;stop-opacity:0.6"/>
      <stop offset="70%" style="stop-color:#FFFFFF;stop-opacity:0.2"/>
      <stop offset="100%" style="stop-color:#FFFFFF;stop-opacity:0"/>
    </linearGradient>
    
    <!-- Particle Glow -->
    <radialGradient id="particleGlow" cx="50%" cy="50%" r="50%">
      <stop offset="0%" style="stop-color:#FFFFFF;stop-opacity:0.8"/>
      <stop offset="70%" style="stop-color:#FF6B6B;stop-opacity:0.4"/>
      <stop offset="100%" style="stop-color:#8E44AD;stop-opacity:0"/>
    </radialGradient>
    
    <!-- Filters for effects -->
    <filter id="moonShadow" x="-50%" y="-50%" width="200%" height="200%">
      <feGaussianBlur in="SourceGraphic" stdDeviation="8"/>
      <feOffset dx="4" dy="8" result="offset"/>
      <feFlood flood-color="#8E44AD" flood-opacity="0.3"/>
      <feComposite in2="offset" operator="in"/>
      <feMerge>
        <feMergeNode/>
        <feMergeNode in="SourceGraphic"/>
      </feMerge>
    </filter>
    
    <filter id="dropShadow" x="-50%" y="-50%" width="200%" height="200%">
      <feGaussianBlur in="SourceGraphic" stdDeviation="6"/>
      <feOffset dx="2" dy="4" result="offset"/>
      <feFlood flood-color="#000000" flood-opacity="0.4"/>
      <feComposite in2="offset" operator="in"/>
      <feMerge>
        <feMergeNode/>
        <feMergeNode in="SourceGraphic"/>
      </feMerge>
    </filter>
  </defs>
  
  <!-- Background Circle -->
  <circle cx="512" cy="512" r="512" fill="url(#holographicBg)"/>
  
  <!-- Floating Particles (AI/Data suggestion) -->
  <circle cx="200" cy="300" r="3" fill="url(#particleGlow)" opacity="0.6"/>
  <circle cx="800" cy="250" r="2.5" fill="url(#particleGlow)" opacity="0.5"/>
  <circle cx="150" cy="600" r="2" fill="url(#particleGlow)" opacity="0.4"/>
  <circle cx="850" cy="700" r="3.5" fill="url(#particleGlow)" opacity="0.7"/>
  <circle cx="300" cy="800" r="2.5" fill="url(#particleGlow)" opacity="0.5"/>
  <circle cx="700" cy="150" r="2" fill="url(#particleGlow)" opacity="0.4"/>
  <circle cx="100" cy="450" r="1.5" fill="url(#particleGlow)" opacity="0.3"/>
  <circle cx="900" cy="500" r="4" fill="url(#particleGlow)" opacity="0.8"/>
  
  <!-- Micro-particles -->
  <circle cx="400" cy="200" r="1" fill="#FFFFFF" opacity="0.6"/>
  <circle cx="600" cy="180" r="1.5" fill="#FF6B6B" opacity="0.5"/>
  <circle cx="180" cy="750" r="1" fill="#FFFFFF" opacity="0.4"/>
  <circle cx="820" cy="800" r="1.2" fill="#B886FF" opacity="0.6"/>
  <circle cx="250" cy="150" r="0.8" fill="#FFFFFF" opacity="0.3"/>
  
  <!-- Crescent Moon -->
  <g filter="url(#moonShadow)">
    <path d="M 512 200 
             C 400 200, 320 280, 320 400
             C 320 520, 400 600, 512 600
             C 480 600, 450 580, 430 550
             C 410 520, 400 485, 400 450
             C 400 415, 410 380, 430 350
             C 450 320, 480 300, 512 300
             Z" 
          fill="url(#moonGradient)" 
          stroke="none"/>
    
    <!-- Moon Inner Glow -->
    <path d="M 512 200 
             C 400 200, 320 280, 320 400
             C 320 520, 400 600, 512 600
             C 480 600, 450 580, 430 550
             C 410 520, 400 485, 400 450
             C 400 415, 410 380, 430 350
             C 450 320, 480 300, 512 300
             Z" 
          fill="url(#moonGlow)"/>
    
    <!-- Constellation Dots -->
    <circle cx="420" cy="320" r="2" fill="#FFFFFF" opacity="0.8"/>
    <circle cx="450" cy="350" r="1.5" fill="#E8B4B8" opacity="0.9"/>
    <circle cx="480" cy="400" r="2.5" fill="#FFFFFF" opacity="0.7"/>
    <circle cx="440" cy="450" r="1.8" fill="#F8F9FA" opacity="0.8"/>
    <circle cx="470" cy="500" r="2.2" fill="#FFFFFF" opacity="0.6"/>
    <circle cx="420" cy="480" r="1.3" fill="#E8B4B8" opacity="0.7"/>
    
    <!-- Connecting constellation lines -->
    <line x1="420" y1="320" x2="450" y2="350" stroke="#FFFFFF" stroke-width="0.5" opacity="0.4"/>
    <line x1="450" y1="350" x2="480" y2="400" stroke="#FFFFFF" stroke-width="0.5" opacity="0.4"/>
    <line x1="480" y1="400" x2="440" y2="450" stroke="#FFFFFF" stroke-width="0.5" opacity="0.3"/>
    <line x1="440" y1="450" x2="470" y2="500" stroke="#FFFFFF" stroke-width="0.5" opacity="0.3"/>
  </g>
  
  <!-- Red Drop -->
  <g filter="url(#dropShadow)">
    <path d="M 580 520
             C 580 495, 600 480, 620 480
             C 640 480, 660 495, 660 520
             C 660 530, 655 540, 648 548
             C 642 555, 632 560, 620 560
             C 608 560, 598 555, 592 548
             C 585 540, 580 530, 580 520
             Z" 
          fill="url(#dropGradient)"/>
    
    <!-- Drop Shimmer Effect -->
    <ellipse cx="625" cy="510" rx="12" ry="15" fill="url(#dropShimmer)"/>
    
    <!-- Drop Highlight -->
    <ellipse cx="615" cy="500" rx="4" ry="6" fill="#FFFFFF" opacity="0.6"/>
  </g>
  
  <!-- Additional Holographic Shine -->
  <ellipse cx="400" cy="300" rx="80" ry="20" fill="#FFFFFF" opacity="0.1" transform="rotate(-30 400 300)"/>
  <ellipse cx="650" cy="600" rx="60" ry="15" fill="#FF6B6B" opacity="0.1" transform="rotate(45 650 600)"/>
</svg>
